<svg width="21" height="20" viewBox="0 0 21 20" fill="none" xmlns="http://www.w3.org/2000/svg">
<path fill-rule="evenodd" clip-rule="evenodd" d="M1.75 10C1.75 5.16751 5.66751 1.25 10.5 1.25C15.3325 1.25 19.25 5.16751 19.25 10C19.25 14.8325 15.3325 18.75 10.5 18.75C5.66751 18.75 1.75 14.8325 1.75 10ZM10.5 14.6875C11.0178 14.6875 11.4375 14.2678 11.4375 13.75V10C11.4375 9.48223 11.0178 9.0625 10.5 9.0625C9.98223 9.0625 9.5625 9.48223 9.5625 10V13.75C9.5625 14.2678 9.98223 14.6875 10.5 14.6875ZM10.5 5.3125C11.1904 5.3125 11.75 5.87214 11.75 6.5625C11.75 7.25286 11.1904 7.8125 10.5 7.8125C9.80964 7.8125 9.25 7.25286 9.25 6.5625C9.25 5.87214 9.80964 5.3125 10.5 5.3125Z" fill="#907FF0"/>
</svg>
